<svg width="89" height="89" viewBox="0 0 89 89" fill="none" xmlns="http://www.w3.org/2000/svg">
<g clip-path="url(#clip0_2413_716)">
<path d="M66.8573 47.2655H40.3331V20.7413C40.3331 19.41 39.2478 18.3247 37.9165 18.3247C20.6534 18.3392 6.58813 32.3899 6.58813 49.6676C6.58813 66.9452 20.6534 81.0104 37.931 81.0104C55.2086 81.0104 69.2739 66.9452 69.2739 49.6676C69.2594 48.3363 68.1886 47.2655 66.8573 47.2655ZM37.931 76.1918C23.3159 76.1918 11.4068 64.2971 11.4068 49.6676C11.4068 35.8628 22.0136 24.4746 35.5144 23.2591V49.6676C35.5144 50.9988 36.5997 52.0552 37.931 52.0552H64.3395C63.1095 65.5561 51.7358 76.1918 37.931 76.1918Z" fill="white" style="fill:white;fill-opacity:1;"/>
<path d="M48.5379 6.92139H47.7276C46.3963 6.92139 45.311 8.00667 45.311 9.33794V39.8705C45.311 41.2017 46.3963 42.287 47.7276 42.287H78.2601C79.5914 42.287 80.6767 41.2017 80.6767 39.8705V39.0601C80.6767 21.3339 66.2642 6.92139 48.5379 6.92139ZM50.1441 37.4539V11.7834C63.9344 12.5938 75.0043 23.6636 75.8146 37.4539H50.1441Z" fill="white" style="fill:white;fill-opacity:1;"/>
</g>
<defs>
<clipPath id="clip0_2413_716">
<rect width="74.0884" height="74.0884" fill="white" style="fill:white;fill-opacity:1;" transform="translate(6.58813 6.92139)"/>
</clipPath>
</defs>
</svg>
