<svg width="503" height="108" viewBox="0 0 503 108" fill="none" xmlns="http://www.w3.org/2000/svg">
<rect x="0.778809" y="0.23999" width="501.458" height="107.759" rx="7.70667" fill="white" style="fill:white;fill-opacity:1;"/>
<path d="M104 26.2V36.568H86.72V71.064H76.416V36.568H59.2V26.2H104ZM155.188 36.568H137.908V60.696H155.188V71.064H110.388V60.696H127.604V36.568H110.388V26.2H155.188V36.568ZM161.575 26.2H206.311V71.064H196.007V36.568H189.159V71.064H178.791V36.568H171.879V71.064H161.575V26.2ZM248.692 60.696H283.124V71.064H238.388V26.2H248.692V60.696ZM334.375 36.568H299.879V43.416H334.375V53.784H299.879V60.696H334.375V71.064H289.575V26.2H334.375V36.568ZM340.763 26.2H385.563V71.064H375.194V53.784H351.067V71.064H340.763V26.2ZM375.194 43.48V36.568H351.067V43.48H375.194ZM426.702 26.2L436.75 40.152V71.064H391.95V26.2H426.702ZM402.254 60.696H426.382V44.504L420.686 36.568H402.254V60.696Z" fill="#343030" style="fill:#343030;fill:color(display-p3 0.2024 0.1896 0.1896);fill-opacity:1;"/>
</svg>
