<svg width="82" height="81" viewBox="0 0 82 81" fill="none" xmlns="http://www.w3.org/2000/svg">
<g clip-path="url(#clip0_2413_711)">
<path d="M71.0579 31.9542L44.2672 5.1793C41.5045 2.41657 36.9894 2.41657 34.2266 5.1793C31.7323 7.67366 31.527 11.4626 33.3583 14.1779L33.3267 14.3674C31.4007 24.0291 26.6962 32.8067 19.7341 39.7688L7.43595 52.0511C4.65742 54.8297 4.65742 59.3132 7.43595 62.0917L14.1297 68.7854C16.9082 71.564 21.3917 71.564 24.1702 68.7854L25.8437 67.112L37.5577 78.826C40.3362 81.6045 44.8197 81.6045 47.5983 78.826C50.361 76.0633 50.361 71.5482 47.5983 68.7854L42.578 63.7651L44.2514 62.0917C47.0299 59.3132 47.0299 54.8297 44.2514 52.0511L43.1147 50.9145C48.7034 46.9993 55.0656 44.2681 61.854 42.9104L62.0434 42.8788C64.822 44.7575 68.5951 44.4418 71.0421 42.0106C73.8206 39.232 73.8206 34.7327 71.0579 31.9542ZM20.8392 65.4386C19.9077 66.37 18.4237 66.37 17.4923 65.4386L10.7986 58.7449C9.86716 57.8134 9.86716 56.3294 10.7986 55.398L22.5126 43.684L32.5532 53.7246C31.4007 54.8612 22.0074 64.2545 20.8392 65.4386ZM44.2672 72.1323C45.1828 73.0479 45.1828 74.5635 44.2672 75.4792C43.3515 76.3948 41.836 76.3948 40.9203 75.4792L29.2063 63.7651L32.5532 60.4183L44.2672 72.1323ZM35.9 57.0714C36.6105 56.361 37.684 55.2717 39.3574 53.8351L40.9203 55.398C41.8518 56.3294 41.8518 57.8134 40.9203 58.7449L39.2469 60.4183L35.9 57.0714ZM35.9948 50.4724L25.749 40.2266C31.2429 33.8802 35.1738 26.3971 37.2735 18.2668L57.9546 38.9479C49.8242 41.0475 42.3412 44.9785 35.9948 50.4724ZM67.711 38.6479C66.7796 39.5793 65.2956 39.5793 64.3641 38.6479L37.5735 11.873C36.642 10.9416 36.642 9.4576 37.5735 8.52616C38.5049 7.59473 39.9889 7.59473 40.9203 8.52616L67.711 35.3168C68.6267 36.2325 68.6267 37.7323 67.711 38.6479ZM55.1445 0.0800781C53.8342 0.0800781 52.7764 1.13781 52.7764 2.44814V7.18426C52.7764 8.49459 53.8342 9.55232 55.1445 9.55232C56.4548 9.55232 57.5126 8.49459 57.5126 7.18426V2.44814C57.5126 1.13781 56.4548 0.0800781 55.1445 0.0800781ZM74.089 19.0246H69.3529C68.0425 19.0246 66.9848 20.0823 66.9848 21.3926C66.9848 22.703 68.0425 23.7607 69.3529 23.7607H74.089C75.3993 23.7607 76.457 22.703 76.457 21.3926C76.457 20.0823 75.3835 19.0246 74.089 19.0246ZM71.0263 5.51083C70.0949 4.5794 68.5951 4.5794 67.6794 5.51083L62.9433 10.247C62.0119 11.1784 62.0119 12.6782 62.9433 13.5938C63.8747 14.5253 65.3745 14.5253 66.2902 13.5938L71.0263 8.85769C71.9419 7.92626 71.9419 6.42648 71.0263 5.51083Z" fill="white" style="fill:white;fill-opacity:1;"/>
</g>
<defs>
<clipPath id="clip0_2413_711">
<rect width="80.8298" height="80.8298" fill="white" style="fill:white;fill-opacity:1;" transform="translate(0.490234 0.0800781)"/>
</clipPath>
</defs>
</svg>
